<?xml version="1.0" encoding="utf-8"?>
<!-- Generator: Adobe Illustrator 27.5.0, SVG Export Plug-In . SVG Version: 6.00 Build 0)  -->
<svg version="1.1" xmlns="http://www.w3.org/2000/svg" xmlns:xlink="http://www.w3.org/1999/xlink" x="0px" y="0px"
	 viewBox="0 0 3710 3710" style="enable-background:new 0 0 3710 3710;" xml:space="preserve">
<g id="Background">
	<g>
		<g>
			<rect style="fill:#FFFFFF;" width="3710" height="3710"/>
		</g>
	</g>
</g>
<g id="Illustration">
	<g>
		<path style="fill:#F4F7FA;" d="M1893.508,455.639c-718.854-21.703-1341.533,511.586-1435.61,1211.329
			c-102.858,765.073,459.394,1483.044,1159.85,1563.71c1550.552,178.564,1706.834-656.223,1631.375-1516.902
			C3192.272,1065.33,2624.237,477.701,1893.508,455.639z"/>
		<g>
			<g>
				<g>
					<defs>
						<path id="SVGID_1_" d="M3068.362,1148.57c-25.427-42.961-74.465-79.015-119.694-98.992
							c-320.616-141.611-615.902,528.803-620.742,700.619c-4.84,171.816-55.659,210.535-343.675,197.769
							c-288.016-12.767-219.387,186.745-220.357,288.639c-0.97,101.893,34.064,200.857-187.171,222.897
							c-221.234,22.039-175.637,101.378-175.637,101.378s220.215,481.569,241.995,360.572
							c21.779-120.997,118.577-280.714,435.594-181.495c136.546,42.735,365.621,52.638,463.031-74.997
							c22.683-29.721,48.495-78.295,52.897-115.915c6.107-52.187-11.855-101.501-13.109-153.137
							c-2.921-120.333,127.476-160.8,211.898-210.17c44.073-25.775,88.472-52.5,127.186-86.036
							c80.375-69.627,95.679-169.795,71.24-269.409c-11.719-47.767-32.564-101.473-27.183-151.487
							c5.782-53.725,40.507-117.482,61.637-167.294c16.57-39.064,34.646-77.416,46.778-118.189
							C3095.615,1317.479,3110.869,1220.391,3068.362,1148.57z"/>
					</defs>
					<use xlink:href="#SVGID_1_"  style="overflow:visible;fill:#D8DEE8;"/>
					<clipPath id="SVGID_00000170275368787607130920000012088880304807583911_">
						<use xlink:href="#SVGID_1_"  style="overflow:visible;"/>
					</clipPath>
					<g style="opacity:0.8;clip-path:url(#SVGID_00000170275368787607130920000012088880304807583911_);">
						<g>
							<path style="fill:#FFFFFF;" d="M1301.784,2751.01c-2.543,0-4.759-1.876-5.114-4.467c-0.389-2.829,1.589-5.438,4.418-5.824
								c1.737-0.239,176.122-24.644,385.396-92.863c192.83-62.858,455.58-176.827,612.248-362.813
								c130.849-155.335,297.942-429.823,458.437-753.081c143.917-289.87,229.916-511.602,229.916-558.506
								c0-2.856,2.314-5.17,5.17-5.17c2.856,0,5.17,2.314,5.17,5.17c0,54.866-101.466,302.212-230.995,563.103
								c-160.846,323.967-328.433,599.205-459.789,755.144c-158.275,187.892-422.958,302.762-617.128,366.041
								c-210.125,68.477-385.275,92.977-387.018,93.216C1302.255,2750.994,1302.018,2751.01,1301.784,2751.01z"/>
						</g>
						<g>
							<path style="fill:#FFFFFF;" d="M2735.545,1590.411c-2.841,0-5.151-1.623-5.17-4.467
								c-0.025-3.766-4.012-377.828-135.381-509.199c-2.02-2.018-2.02-5.125,0-7.143c2.02-2.02,5.291-1.936,7.311,0.084
								c134.373,134.371,138.307,500.598,138.41,516.15c0.019,2.854-2.281,4.576-5.136,4.576
								C2735.567,1590.411,2735.555,1590.411,2735.545,1590.411z"/>
						</g>
						<g>
							<path style="fill:#FFFFFF;" d="M2538.142,1951.559c-2.12,0-4.11-1.316-4.867-3.428c-0.963-2.688,0.436-5.648,3.124-6.61
								c1.165-0.417,118.099-42.022,251.866-64.117c180.74-29.851,304.538-11.811,367.959,53.624
								c1.988,2.05,1.935,5.323-0.115,7.311c-2.053,1.986-5.323,1.935-7.311-0.114c-145.914-150.541-604.301,11.378-608.914,13.031
								C2539.31,1951.462,2538.721,1951.559,2538.142,1951.559z"/>
						</g>
						<g>
							<path style="fill:#FFFFFF;" d="M1863.76,2592.349c-0.555,0-1.119-0.091-1.674-0.281c-2.701-0.924-4.142-3.864-3.216-6.565
								c0.485-1.42,48.892-143.895,72.897-303.718c22.009-146.535,27.512-338.024-71.263-418.122
								c-2.218-1.799-2.558-5.054-0.759-7.272c1.797-2.22,5.055-2.56,7.272-0.759c82.363,66.789,107.581,210.731,74.953,427.825
								c-24.155,160.727-72.829,303.966-73.319,305.394C1867.917,2590.998,1865.909,2592.349,1863.76,2592.349z"/>
						</g>
						<g>
							<path style="fill:#FFFFFF;" d="M2147.021,2435.912c-2.225,0-4.278-1.447-4.949-3.686c-0.821-2.735,0.73-5.618,3.465-6.437
								c19.824-5.947,487.058-144.743,621.838-66.979c2.474,1.427,3.322,4.589,1.895,7.061c-1.427,2.474-4.589,3.324-7.062,1.895
								c-130.965-75.559-608.888,66.483-613.7,67.925C2148.012,2435.841,2147.512,2435.912,2147.021,2435.912z"/>
						</g>
					</g>
				</g>
			</g>
			<g>
				<g>
					<defs>
						<path id="SVGID_00000009575655511372030940000015380998663350828471_" d="M2496.109,535.073
							c-40.941-28.567-100.509-41.066-149.95-40.51c-350.475,3.939-341.488,736.447-274.712,894.83
							c66.775,158.383,36.563,214.677-230.863,322.378c-267.426,107.701-122.31,260.854-80.979,353.994
							c41.33,93.14,114.215,168.698-78.011,280.411c-192.226,111.712-117.856,165.032-117.856,165.032
							s399.934,347.068,369.63,227.92c-30.305-119.148-8.372-304.616,321.265-345.646
							c141.981-17.674,354.576-103.562,390.356-260.084c8.332-36.448,11.701-91.35,0.123-127.414
							c-16.063-50.028-52.84-87.469-75.373-133.947c-52.51-108.311,49.406-199.163,105.788-279.072
							c29.435-41.717,58.773-84.435,80.114-130.997c44.307-96.669,16.739-194.177-46.773-274.715
							c-30.455-38.62-71.677-78.865-87.499-126.614c-16.995-51.293-11.803-123.707-13.209-177.797
							c-1.103-42.419-0.539-84.814-6.389-126.949C2590.889,677.514,2564.551,582.83,2496.109,535.073z"/>
					</defs>
					
						<linearGradient id="SVGID_00000044176006160868857250000013397898505963755915_" gradientUnits="userSpaceOnUse" x1="2272.7385" y1="334.961" x2="1962.5449" y2="4849.9746">
						<stop  offset="0" style="stop-color:#FFC444"/>
						<stop  offset="0.9964" style="stop-color:#F36F56"/>
					</linearGradient>
					
						<use xlink:href="#SVGID_00000009575655511372030940000015380998663350828471_"  style="overflow:visible;fill:url(#SVGID_00000044176006160868857250000013397898505963755915_);"/>
					<clipPath id="SVGID_00000158746680081724745780000006164605598260724647_">
						<use xlink:href="#SVGID_00000009575655511372030940000015380998663350828471_"  style="overflow:visible;"/>
					</clipPath>
					<g style="opacity:0.8;clip-path:url(#SVGID_00000158746680081724745780000006164605598260724647_);">
						<g>
							<path style="fill:#FFFFFF;" d="M1552.126,2725.393c-2.314,1.053-5.109,0.264-6.505-1.946
								c-1.526-2.414-0.807-5.607,1.608-7.131c1.482-0.937,150.088-95.395,312.296-244.182
								c149.463-137.096,341.388-349.678,406.928-583.858c54.739-195.586,93.104-514.635,105.257-875.338
								c10.897-323.446-2.69-560.884-22.122-603.573c-1.183-2.599-0.036-5.664,2.564-6.847c2.599-1.183,5.664-0.036,6.847,2.563
								c22.73,49.936,32.853,317.093,23.045,608.205c-12.18,361.494-50.682,681.43-105.632,877.776
								c-66.213,236.58-259.525,450.783-410.033,588.817c-162.876,149.375-312.138,244.236-313.626,245.175
								C1552.549,2725.184,1552.339,2725.296,1552.126,2725.393z"/>
						</g>
						<g>
							<path style="fill:#FFFFFF;" d="M2376.243,1075.094c-2.585,1.177-5.361,0.657-6.556-1.924
								c-1.583-3.417-160.18-342.218-334.169-407.36c-2.674-1-3.961-3.828-2.959-6.501c1.001-2.675,4.014-3.954,6.688-2.953
								c177.967,66.629,333.27,398.32,339.806,412.431c1.199,2.59-0.18,5.11-2.779,6.293
								C2376.263,1075.085,2376.253,1075.09,2376.243,1075.094z"/>
						</g>
						<g>
							<path style="fill:#FFFFFF;" d="M2346.196,1485.573c-1.93,0.879-4.285,0.505-5.85-1.104c-1.99-2.047-1.943-5.321,0.104-7.31
								c0.887-0.862,90.079-87.173,202.673-162.7c152.133-102.047,272.281-136.914,357.113-103.634
								c2.658,1.042,3.967,4.043,2.925,6.701c-1.046,2.658-4.043,3.967-6.701,2.925c-195.17-76.564-545.29,260.708-548.803,264.123
								C2347.219,1485,2346.723,1485.333,2346.196,1485.573z"/>
						</g>
						<g>
							<path style="fill:#FFFFFF;" d="M1997.877,2348.172c-0.505,0.23-1.056,0.381-1.641,0.438c-2.841,0.278-5.37-1.801-5.647-4.643
								c-0.147-1.494-15.115-151.221-59.479-306.628c-40.676-142.487-114.998-319.05-238.08-351.03
								c-2.764-0.719-4.422-3.54-3.703-6.304c0.716-2.765,3.541-4.424,6.304-3.703c102.632,26.667,185.217,147.227,245.459,358.333
								c44.602,156.292,59.643,306.826,59.789,308.329C2001.1,2345.219,1999.833,2347.281,1997.877,2348.172z"/>
						</g>
						<g>
							<path style="fill:#FFFFFF;" d="M2190.877,2088.44c-2.025,0.922-4.493,0.455-6.031-1.304c-1.88-2.149-1.663-5.415,0.487-7.294
								c15.579-13.626,383.33-333.518,538.216-318.578c2.843,0.274,4.925,2.801,4.65,5.642c-0.274,2.843-2.8,4.926-5.642,4.65
								c-150.5-14.513-526.636,312.762-530.417,316.068C2191.75,2087.965,2191.324,2088.237,2190.877,2088.44z"/>
						</g>
					</g>
				</g>
			</g>
		</g>
		<g>
			<g>
				<g>
					<path style="fill:#26264F;" d="M2196.677,760.317c88.771,750.274,177.543,1492.715,266.314,2227.332
						c3.985,32.935-18.771,62.065-50.608,64.777c-356.769,33.843-713.54,68.433-1070.31,103.764
						c-63.642,3.089-98.589-32.474-102.686-68.078c-91.374-793.021-182.746-1594.346-274.119-2403.97
						c-4.097-36.362,26.707-67.617,90.349-64.51c358.527,25.563,717.055,50.787,1075.582,75.674
						C2163.249,697.426,2192.696,726.662,2196.677,760.317z"/>
					
						<linearGradient id="SVGID_00000006679962708542654660000006116672927142300069_" gradientUnits="userSpaceOnUse" x1="5536.6323" y1="1887.49" x2="7800.5288" y2="1800.9424" gradientTransform="matrix(1 0 0.1172 1.0028 -4575.0493 -3.761)">
						<stop  offset="0" style="stop-color:#444B8C"/>
						<stop  offset="0.9964" style="stop-color:#26264F"/>
					</linearGradient>
					<path style="fill:url(#SVGID_00000006679962708542654660000006116672927142300069_);" d="M2246.227,758.781
						c89.33,753.544,178.66,1499.162,267.99,2236.851c4.008,33.045-18.885,62.342-50.925,65.076
						c-370.459,31.373-740.92,63.364-1111.38,95.988c-33.807,3.006-64.883-23.772-69.002-59.547
						c-91.948-796.655-183.896-1601.702-275.845-2415.165c-4.123-36.516,20.384-64.549,54.417-62.241
						c372.952,24.878,745.903,49.453,1118.854,73.739C2212.591,695.627,2242.219,724.977,2246.227,758.781z"/>
					
						<linearGradient id="SVGID_00000138549570472282261890000003580008286575627199_" gradientUnits="userSpaceOnUse" x1="6533.7915" y1="1024.8822" x2="4355.5747" y2="5542.9097" gradientTransform="matrix(1 0 0 1 -4351.145 0)">
						<stop  offset="0.0036" style="stop-color:#E38DDD"/>
						<stop  offset="1" style="stop-color:#9571F6"/>
					</linearGradient>
					<path style="fill:url(#SVGID_00000138549570472282261890000003580008286575627199_);" d="M2224.704,882.06
						c82.74,698.154,165.482,1389.496,248.222,2074.041c3.745,30.938-17.653,58.26-47.588,60.696
						c-348.397,28.494-696.797,57.528-1045.194,87.106c-31.479,2.699-60.417-22.368-64.263-55.605
						c-85.018-735.824-170.034-1478.836-255.052-2229.026c-3.842-33.94,18.963-60.209,50.64-58.331
						c350.568,20.411,701.137,40.615,1051.705,60.595C2193.292,823.255,2220.969,850.525,2224.704,882.06z"/>
					
						<linearGradient id="SVGID_00000142156944792798516910000000961935078500512149_" gradientUnits="userSpaceOnUse" x1="6541.6309" y1="1028.6609" x2="4363.4155" y2="5546.6846" gradientTransform="matrix(1 0 0 1 -4351.145 0)">
						<stop  offset="0.0036" style="stop-color:#E38DDD"/>
						<stop  offset="1" style="stop-color:#9571F6"/>
					</linearGradient>
					<path style="opacity:0.3;fill:url(#SVGID_00000142156944792798516910000000961935078500512149_);" d="M2163.174,821.536
						c-346.415-19.744-692.832-39.713-1039.247-59.874c10.709,61.569,29.38,128.578,60.864,196.885
						c114.906,249.292,283.713,263.02,349.755,480.261c68.039,223.809-85.405,293.852-10.44,495.922
						c81.346,219.27,280.851,187.535,386.297,428.059c90.887,207.311-26.116,302.077,67.863,428.059
						c103.01,138.086,293.571,91.27,491.375,138.038c-81.645-675.66-163.291-1357.912-244.937-2046.824
						C2220.969,850.525,2193.292,823.256,2163.174,821.536z"/>
				</g>
				<path style="fill:#DE8BDF;" d="M1657.189,729.51c1.409,12.138-6.747,21.433-18.224,20.77
					c-11.483-0.698-21.939-11.133-23.348-23.329c-1.411-12.16,6.76-21.508,18.244-20.757
					C1645.341,706.905,1655.78,717.35,1657.189,729.51z"/>
				
					<linearGradient id="SVGID_00000024713513658624750420000011979307266005052305_" gradientUnits="userSpaceOnUse" x1="6053.3062" y1="1309.5944" x2="6213.665" y2="1309.5944" gradientTransform="matrix(1 0 0 1 -4351.145 0)">
					<stop  offset="0" style="stop-color:#FF9085"/>
					<stop  offset="1" style="stop-color:#FB6FBB"/>
				</linearGradient>
				
					<ellipse style="fill:url(#SVGID_00000024713513658624750420000011979307266005052305_);" cx="1782.341" cy="1309.594" rx="80.179" ry="94.594"/>
				
					<linearGradient id="SVGID_00000098926379848602204430000009072794098041695121_" gradientUnits="userSpaceOnUse" x1="6372.4717" y1="1309.5944" x2="6532.8301" y2="1309.5944" gradientTransform="matrix(1 0 0 1 -4351.145 0)">
					<stop  offset="0" style="stop-color:#FF9085"/>
					<stop  offset="1" style="stop-color:#FB6FBB"/>
				</linearGradient>
				
					<ellipse style="fill:url(#SVGID_00000098926379848602204430000009072794098041695121_);" cx="2101.506" cy="1309.594" rx="80.179" ry="94.594"/>
				<ellipse style="fill:#D8DEE8;" cx="1941.039" cy="1309.594" rx="81.322" ry="94.594"/>
				
					<linearGradient id="SVGID_00000149381611031176342700000009341435307693608357_" gradientUnits="userSpaceOnUse" x1="6691.6367" y1="1309.5944" x2="6851.9956" y2="1309.5944" gradientTransform="matrix(1 0 0 1 -4351.145 0)">
					<stop  offset="0" style="stop-color:#FF9085"/>
					<stop  offset="1" style="stop-color:#FB6FBB"/>
				</linearGradient>
				
					<ellipse style="fill:url(#SVGID_00000149381611031176342700000009341435307693608357_);" cx="2420.671" cy="1309.594" rx="80.179" ry="94.594"/>
				<ellipse style="fill:#D8DEE8;" cx="2260.204" cy="1309.594" rx="81.322" ry="94.594"/>
				<ellipse style="fill:#D8DEE8;" cx="2579.369" cy="1309.594" rx="81.322" ry="94.594"/>
				<ellipse style="fill:#D8DEE8;" cx="1621.874" cy="1309.594" rx="81.322" ry="94.594"/>
				
					<linearGradient id="SVGID_00000049931808209755340100000007552039868536216450_" gradientUnits="userSpaceOnUse" x1="5395.8882" y1="1036.9894" x2="7177.6123" y2="1036.9894" gradientTransform="matrix(1 0 0 1 -4351.145 0)">
					<stop  offset="0" style="stop-color:#FF9085"/>
					<stop  offset="1" style="stop-color:#FB6FBB"/>
				</linearGradient>
				<polygon style="fill:url(#SVGID_00000049931808209755340100000007552039868536216450_);" points="1044.744,751.574 
					1542.292,1322.405 2826.468,1322.405 2204.2,823.873 				"/>
				<g>
					<polygon style="fill:#F4F7FA;" points="1044.744,751.575 1542.292,1322.405 1703.196,1322.405 1178.582,759.92 					"/>
					<polygon style="fill:#F4F7FA;" points="1322.285,768.88 1861.759,1322.405 2020.701,1322.405 1467.051,777.909 					"/>
					<polygon style="fill:#F4F7FA;" points="1612.897,787.003 2180.025,1322.405 2339.734,1322.405 1759.843,796.166 					"/>
					<polygon style="fill:#F4F7FA;" points="2057.114,814.702 1907.909,805.398 2499.832,1322.405 2660.321,1322.405 					"/>
				</g>
				
					<linearGradient id="SVGID_00000014611068979340600900000008202680692927664305_" gradientUnits="userSpaceOnUse" x1="7011.6221" y1="1363.2959" x2="7170.3408" y2="1363.2959" gradientTransform="matrix(1 0 0 1 -4351.145 0)">
					<stop  offset="0" style="stop-color:#FF9085"/>
					<stop  offset="1" style="stop-color:#FB6FBB"/>
				</linearGradient>
				<path style="fill:url(#SVGID_00000014611068979340600900000008202680692927664305_);" d="M2660.478,1322.405
					c5.312,46.167,38.77,81.783,79.359,81.783s74.047-35.616,79.359-81.783H2660.478z"/>
			</g>
			<g style="opacity:0.8;">
				<g style="opacity:0.35;">
					
						<linearGradient id="SVGID_00000090270017546628041290000005522387800271788960_" gradientUnits="userSpaceOnUse" x1="5721.5249" y1="2366.2454" x2="6599.0464" y2="2366.2454" gradientTransform="matrix(1 0 0 1 -4351.145 0)">
						<stop  offset="0" style="stop-color:#FFC444"/>
						<stop  offset="0.9964" style="stop-color:#F36F56"/>
					</linearGradient>
					<path style="fill:url(#SVGID_00000090270017546628041290000005522387800271788960_);" d="M2247.76,2429.539
						c1.804,21.44-13.815,39.483-34.921,40.348l-773.358,31.731c-22.732,0.933-43.595-16.321-46.562-38.589l-22.175-166.427
						c-3.032-22.754,13.259-41.798,36.348-42.482l785.113-23.269c21.415-0.635,40.24,16.635,42.081,38.524L2247.76,2429.539z"/>
					
						<linearGradient id="SVGID_00000145737417576229467230000001832454383206926489_" gradientUnits="userSpaceOnUse" x1="5765.48" y1="2615.2847" x2="6613.6113" y2="2615.2847" gradientTransform="matrix(1 0 0 1 -4351.145 0)">
						<stop  offset="0" style="stop-color:#FFC444"/>
						<stop  offset="0.9964" style="stop-color:#F36F56"/>
					</linearGradient>
					<path style="fill:url(#SVGID_00000145737417576229467230000001832454383206926489_);" d="M2262.329,2602.714
						c1.768,21.018-13.699,38.851-34.581,39.88l-764.886,37.691c-22.475,1.107-43.079-15.635-45.985-37.448l-2.198-16.493
						c-2.919-21.91,13.074-40.536,35.686-41.551l769.413-34.521c21.001-0.942,39.438,15.444,41.214,36.552L2262.329,2602.714z"/>
				</g>
				<g style="opacity:0.3;">
					
						<linearGradient id="SVGID_00000012471497704037923530000004854204399506730884_" gradientUnits="userSpaceOnUse" x1="5745.5015" y1="1768.4624" x2="6463.7969" y2="1768.4624" gradientTransform="matrix(1 0 0 1 -4351.145 0)">
						<stop  offset="0" style="stop-color:#FFC444"/>
						<stop  offset="0.9964" style="stop-color:#F36F56"/>
					</linearGradient>
					<path style="fill:url(#SVGID_00000012471497704037923530000004854204399506730884_);" d="M2096.25,1804.72l-673.008,5.308
						c-11.326,0.089-21.619-8.374-22.97-18.915l-5.768-45.004c-1.359-10.606,6.789-19.212,18.178-19.212l676.577,0.017
						c9.95,0,18.715,8.023,19.593,17.91l3.729,41.963C2113.455,1796.617,2106.15,1804.642,2096.25,1804.72z"/>
					
						<linearGradient id="SVGID_00000064317362479560181670000006642888949086732474_" gradientUnits="userSpaceOnUse" x1="5803.3906" y1="1943.3542" x2="6425.1543" y2="1943.3542" gradientTransform="matrix(1 0 0 1 -4351.145 0)">
						<stop  offset="0" style="stop-color:#FFC444"/>
						<stop  offset="0.9964" style="stop-color:#F36F56"/>
					</linearGradient>
					<path style="fill:url(#SVGID_00000064317362479560181670000006642888949086732474_);" d="M1452.246,1826.598l85.957,217.254
						c5.347,13.517,19.695,22.633,34.779,22.14l440.424-14.407c13.788-0.451,24.919-9.944,27.036-23.037l33.568-207.849
						L1452.246,1826.598z M1645.385,2029.073c0.988,8.506-5.573,15.623-14.664,15.903l-15.721,0.485
						c-9.135,0.282-17.379-6.411-18.395-14.956l-19.995-168.166c-1.036-8.715,5.644-15.873,14.902-15.98l15.932-0.184
						c9.213-0.106,17.49,6.846,18.498,15.52L1645.385,2029.073z M1732.343,2026.52c0.939,8.435-5.538,15.491-14.477,15.767
						l-15.456,0.477c-8.981,0.277-17.059-6.362-18.024-14.836l-19.005-166.748c-0.985-8.641,5.608-15.737,14.708-15.842l15.661-0.18
						c9.056-0.105,17.166,6.789,18.123,15.39L1732.343,2026.52z M1817.843,2024.01c0.891,8.366-5.504,15.361-14.293,15.633
						l-15.198,0.469c-8.831,0.272-16.747-6.313-17.664-14.717l-18.046-165.354c-0.935-8.568,5.573-15.604,14.519-15.707
						l15.396-0.177c8.903-0.103,16.849,6.734,17.758,15.262L1817.843,2024.01z M1901.922,2021.542
						c0.845,8.297-5.47,15.234-14.114,15.501l-14.946,0.461c-8.684,0.268-16.443-6.266-17.313-14.601l-17.117-163.983
						c-0.887-8.496,5.538-15.472,14.334-15.574l15.138-0.175c8.754-0.101,16.541,6.679,17.402,15.136L1901.922,2021.542z
						 M1984.614,2019.115c0.8,8.23-5.437,15.109-13.938,15.371l-14.7,0.454c-8.541,0.264-16.146-6.219-16.971-14.486
						l-16.215-162.635c-0.84-8.426,5.504-15.343,14.154-15.443l14.886-0.172c8.609-0.099,16.241,6.625,17.056,15.013
						L1984.614,2019.115z"/>
					<g>
						<g>
							
								<linearGradient id="SVGID_00000005232147275531269120000016152493178784823180_" gradientUnits="userSpaceOnUse" x1="5821.687" y1="1686.1504" x2="5872.752" y2="1686.1504" gradientTransform="matrix(1 0 0 1 -4351.145 0)">
								<stop  offset="0" style="stop-color:#FFC444"/>
								<stop  offset="0.9964" style="stop-color:#F36F56"/>
							</linearGradient>
							<path style="fill:url(#SVGID_00000005232147275531269120000016152493178784823180_);" d="M1514.957,1704.203
								c-9.473,8.615-25.6,7.559-36.038-2.393c-10.468-9.98-11.232-25.102-1.69-33.741c9.532-8.63,25.703-7.489,36.102,2.516
								C1523.7,1680.562,1524.42,1695.598,1514.957,1704.203z"/>
							
								<linearGradient id="SVGID_00000133519230975765012350000016993832685341527471_" gradientUnits="userSpaceOnUse" x1="5844.6943" y1="1588.3689" x2="6065.1948" y2="1588.3689" gradientTransform="matrix(1 0 0 1 -4351.145 0)">
								<stop  offset="0" style="stop-color:#FFC444"/>
								<stop  offset="0.9964" style="stop-color:#F36F56"/>
							</linearGradient>
							<path style="fill:url(#SVGID_00000133519230975765012350000016993832685341527471_);" d="M1711.602,1490.679
								c-3.868-3.924-10.942-3.54-15.8,0.864l-197.966,179.478c-4.97,4.506-5.728,11.298-1.694,15.162
								c4.03,3.86,11.315,3.335,16.271-1.166l197.412-179.28C1714.67,1501.338,1715.465,1494.599,1711.602,1490.679z"/>
						</g>
						<g>
							
								<linearGradient id="SVGID_00000162322119114880286600000013912774558950697603_" gradientUnits="userSpaceOnUse" x1="6334.9546" y1="1688.1592" x2="6381.0415" y2="1688.1592" gradientTransform="matrix(1 0 0 1 -4351.145 0)">
								<stop  offset="0" style="stop-color:#FFC444"/>
								<stop  offset="0.9964" style="stop-color:#F36F56"/>
							</linearGradient>
							<path style="fill:url(#SVGID_00000162322119114880286600000013912774558950697603_);" d="M1993.442,1705.257
								c10.339,8.245,24.71,7.284,32.122-2.121c7.407-9.399,5.089-23.713-5.2-31.997c-10.318-8.308-24.745-7.413-32.202,2.025
								C1980.7,1682.608,1983.074,1696.989,1993.442,1705.257z"/>
							
								<linearGradient id="SVGID_00000110457730795278944030000007538344141890658485_" gradientUnits="userSpaceOnUse" x1="6111.6992" y1="1590.0215" x2="6359.3589" y2="1590.0215" gradientTransform="matrix(1 0 0 1 -4351.145 0)">
								<stop  offset="0" style="stop-color:#FFC444"/>
								<stop  offset="0.9964" style="stop-color:#F36F56"/>
							</linearGradient>
							<path style="fill:url(#SVGID_00000110457730795278944030000007538344141890658485_);" d="M1761.89,1491.843
								c3.005-3.743,10.109-3.03,15.859,1.587l224.59,180.306c5.404,4.339,7.448,10.807,4.571,14.453
								c-2.878,3.647-9.595,3.098-15.01-1.233l-225.016-179.983C1761.123,1502.364,1758.884,1495.587,1761.89,1491.843z"/>
						</g>
					</g>
				</g>
				<g>
					<path style="fill:#FFFFFF;" d="M2260.907,2416.392c1.804,21.44-13.816,39.482-34.921,40.348l-773.358,31.731
						c-22.732,0.933-43.595-16.321-46.562-38.589l-22.175-166.426c-3.032-22.754,13.259-41.798,36.348-42.482l785.113-23.268
						c21.415-0.635,40.24,16.635,42.081,38.523L2260.907,2416.392z"/>
					<path style="fill:#FFFFFF;" d="M2275.476,2589.567c1.768,21.018-13.699,38.851-34.581,39.88l-764.886,37.691
						c-22.475,1.107-43.079-15.635-45.985-37.448l-2.198-16.493c-2.919-21.91,13.074-40.536,35.686-41.551l769.413-34.521
						c21.001-0.942,39.438,15.444,41.214,36.552L2275.476,2589.567z"/>
				</g>
				<g>
					<path style="fill:#FFFFFF;" d="M2105.289,1795.681l-673.008,5.308c-11.326,0.089-21.619-8.374-22.97-18.915l-5.768-45.004
						c-1.359-10.606,6.789-19.212,18.178-19.212l676.577,0.017c9.95,0,18.715,8.023,19.593,17.91l3.728,41.963
						C2122.493,1787.578,2115.189,1795.603,2105.289,1795.681z"/>
					<path style="fill:#FFFFFF;" d="M1461.285,1817.56l85.957,217.254c5.347,13.517,19.695,22.633,34.779,22.14l440.424-14.408
						c13.788-0.451,24.918-9.944,27.036-23.037l33.568-207.849L1461.285,1817.56z M1654.424,2020.034
						c0.988,8.506-5.573,15.623-14.664,15.903l-15.721,0.485c-9.135,0.282-17.379-6.411-18.395-14.956l-19.995-168.166
						c-1.036-8.715,5.644-15.873,14.902-15.98l15.932-0.184c9.213-0.106,17.491,6.846,18.498,15.52L1654.424,2020.034z
						 M1741.382,2017.481c0.939,8.435-5.538,15.491-14.477,15.767l-15.456,0.477c-8.981,0.277-17.059-6.362-18.024-14.836
						l-19.005-166.748c-0.985-8.641,5.608-15.738,14.708-15.842l15.661-0.181c9.056-0.104,17.166,6.789,18.123,15.39
						L1741.382,2017.481z M1826.882,2014.972c0.891,8.366-5.504,15.361-14.293,15.633l-15.198,0.469
						c-8.831,0.272-16.747-6.313-17.664-14.717l-18.046-165.354c-0.935-8.568,5.573-15.604,14.519-15.707l15.396-0.177
						c8.903-0.103,16.849,6.734,17.758,15.262L1826.882,2014.972z M1910.96,2012.504c0.844,8.297-5.47,15.234-14.114,15.501
						l-14.946,0.461c-8.684,0.268-16.443-6.266-17.313-14.601l-17.117-163.983c-0.887-8.496,5.538-15.473,14.334-15.574
						l15.138-0.174c8.754-0.101,16.541,6.679,17.402,15.136L1910.96,2012.504z M1993.652,2010.076
						c0.799,8.23-5.437,15.109-13.938,15.371l-14.7,0.454c-8.541,0.264-16.146-6.219-16.971-14.486l-16.215-162.635
						c-0.84-8.426,5.504-15.343,14.154-15.443l14.886-0.172c8.609-0.099,16.241,6.626,17.056,15.013L1993.652,2010.076z"/>
					<g>
						<g>
							<path style="fill:#FFFFFF;" d="M1523.996,1695.165c-9.473,8.615-25.6,7.558-36.038-2.393
								c-10.468-9.98-11.232-25.101-1.69-33.741c9.532-8.63,25.703-7.488,36.102,2.516
								C1532.739,1671.523,1533.459,1686.559,1523.996,1695.165z"/>
							<path style="fill:#FFFFFF;" d="M1720.641,1481.641c-3.868-3.924-10.942-3.54-15.8,0.864l-197.966,179.478
								c-4.97,4.506-5.728,11.298-1.694,15.162c4.03,3.86,11.315,3.335,16.271-1.166l197.412-179.28
								C1723.709,1492.299,1724.504,1485.56,1720.641,1481.641z"/>
						</g>
						<g>
							<path style="fill:#FFFFFF;" d="M2002.48,1696.219c10.339,8.246,24.71,7.284,32.122-2.121
								c7.407-9.399,5.089-23.713-5.2-31.997c-10.318-8.307-24.745-7.413-32.202,2.025
								C1989.738,1673.569,1992.112,1687.95,2002.48,1696.219z"/>
							<path style="fill:#FFFFFF;" d="M1770.929,1482.804c3.005-3.743,10.109-3.03,15.859,1.587l224.591,180.306
								c5.404,4.339,7.448,10.807,4.571,14.453c-2.878,3.647-9.595,3.098-15.01-1.233l-225.016-179.983
								C1770.162,1493.326,1767.923,1486.548,1770.929,1482.804z"/>
						</g>
					</g>
				</g>
			</g>
		</g>
		<g>
			
				<linearGradient id="SVGID_00000119833003283069543620000000786766330669338523_" gradientUnits="userSpaceOnUse" x1="665.2448" y1="2070.9333" x2="1031.6322" y2="2070.9333">
				<stop  offset="0" style="stop-color:#311944"/>
				<stop  offset="1" style="stop-color:#A03976"/>
			</linearGradient>
			<path style="fill:url(#SVGID_00000119833003283069543620000000786766330669338523_);" d="M1015.794,2258.637
				c-7.958,0-14.81-5.997-15.701-14.094l-28.464-259.491l-14.718,7.253c-4.896,2.411-10.715,2.129-15.348-0.756
				c-4.638-2.885-7.459-7.964-7.459-13.429v-7.474l-10.868,4.738c-3.254,1.425-6.889,1.709-10.333,0.804l-235.849-61.846
				c-8.447-2.215-13.504-10.859-11.29-19.308c2.218-8.446,10.868-13.495,19.311-11.287l230.543,60.452l27.979-12.204
				c4.88-2.137,10.517-1.66,14.987,1.263c4.462,2.923,7.15,7.898,7.15,13.232v6.205l12.165-5.991
				c4.638-2.284,10.079-2.163,14.6,0.321c4.52,2.481,7.547,7.012,8.113,12.14l30.924,281.929
				c0.953,8.682-5.318,16.492-13.997,17.444C1016.953,2258.603,1016.37,2258.637,1015.794,2258.637z"/>
			<g>
				
					<linearGradient id="SVGID_00000043446838318051153090000002275783925559032243_" gradientUnits="userSpaceOnUse" x1="1506.1034" y1="2029.0426" x2="849.4329" y2="2111.1262">
					<stop  offset="0" style="stop-color:#D8DEE8"/>
					<stop  offset="1" style="stop-color:#FFFFFF"/>
				</linearGradient>
				<path style="fill:url(#SVGID_00000043446838318051153090000002275783925559032243_);" d="M1475.204,2086.132
					c0,39.193-161.112,40.565-359.855,40.565c-198.742,0-359.855-1.371-359.855-40.565c0-39.19,161.113-70.963,359.855-70.963
					C1314.093,2015.169,1475.204,2046.942,1475.204,2086.132z"/>
				
					<linearGradient id="SVGID_00000082342718901332024540000007759452813134700966_" gradientUnits="userSpaceOnUse" x1="1510.0977" y1="2060.998" x2="853.4268" y2="2143.0815">
					<stop  offset="0" style="stop-color:#D8DEE8"/>
					<stop  offset="1" style="stop-color:#FFFFFF"/>
				</linearGradient>
				<path style="fill:url(#SVGID_00000082342718901332024540000007759452813134700966_);" d="M755.798,2086.132
					c0,0-16.737,45.921-16.737,46.59c0,0.67,750.475,0,750.475,0l-14.058-46.59H755.798z"/>
			</g>
			<path style="fill:#D8DEE8;" d="M1489.429,2133.058c0,40.856-167.951,73.975-375.13,73.975
				c-207.18,0-375.133-33.119-375.133-73.975c0-40.856,167.953-73.976,375.133-73.976
				C1321.478,2059.081,1489.429,2092.202,1489.429,2133.058z"/>
			
				<linearGradient id="SVGID_00000146457091782903949330000007449587571765708690_" gradientUnits="userSpaceOnUse" x1="1140.5764" y1="2354.5122" x2="898.0806" y2="3250.6914">
				<stop  offset="0" style="stop-color:#FF9085"/>
				<stop  offset="1" style="stop-color:#FB6FBB"/>
			</linearGradient>
			<path style="fill:url(#SVGID_00000146457091782903949330000007449587571765708690_);" d="M1453.507,2133.392
				c0-34.756-151.87-62.93-339.208-62.93c-187.342,0-339.21,28.174-339.21,62.93h-0.212l68.956,888.853
				c0,44.368,121.092,80.336,270.467,80.336c149.373,0,270.465-35.967,270.465-80.336l68.954-888.853H1453.507z"/>
			<g style="opacity:0.3;">
				
					<linearGradient id="SVGID_00000181800058972620118040000005630145108416444041_" gradientUnits="userSpaceOnUse" x1="1732.8529" y1="1995.5735" x2="765.9338" y2="2944.5322">
					<stop  offset="0" style="stop-color:#FF9085"/>
					<stop  offset="1" style="stop-color:#FB6FBB"/>
				</linearGradient>
				<path style="fill:url(#SVGID_00000181800058972620118040000005630145108416444041_);" d="M1453.507,2133.392
					c0-34.756-151.87-62.93-339.208-62.93c-65.039,0-125.798,3.395-177.415,9.284c-8.019,24.317-12.314,50.12-11.009,77.077
					c7.477,154.563,191.929,206.178,255.737,352.142c38.895,88.972,40.394,358.363-106.251,592.788
					c12.715,0.545,25.715,0.828,38.938,0.828c149.373,0,270.465-35.967,270.465-80.336l68.954-888.853H1453.507z"/>
			</g>
		</g>
		<g>
			<g>
				
					<linearGradient id="SVGID_00000001663997604193381450000015461977816863850164_" gradientUnits="userSpaceOnUse" x1="778.8593" y1="2584.3188" x2="1066.2327" y2="2584.3188">
					<stop  offset="0" style="stop-color:#311944"/>
					<stop  offset="1" style="stop-color:#A03976"/>
				</linearGradient>
				<path style="fill:url(#SVGID_00000001663997604193381450000015461977816863850164_);" d="M1059.55,2707.494
					c-3.401,0-6.307-2.586-6.636-6.04c-5.844-61.32-25.837-119.58-56.295-164.053c-26.982-39.399-59.105-62.91-85.945-62.91
					c-0.031,0-0.059,0-0.09,0c-97.758,0.19-118.207,224.633-118.402,226.901c-0.316,3.673-3.534,6.392-7.221,6.078
					c-3.672-0.316-6.393-3.549-6.078-7.22c0.838-9.755,21.768-238.892,131.675-239.107c0.039,0,0.079,0,0.117,0
					c31.712,0,67.043,25.037,96.956,68.715c31.714,46.308,52.515,106.798,58.57,170.328c0.349,3.67-2.341,6.928-6.011,7.279
					C1059.976,2707.485,1059.762,2707.494,1059.55,2707.494z"/>
				
					<linearGradient id="SVGID_00000174563321604391429210000000383526251507885979_" gradientUnits="userSpaceOnUse" x1="583.9988" y1="2745.6824" x2="746.6706" y2="3018.4702">
					<stop  offset="0.0036" style="stop-color:#E38DDD"/>
					<stop  offset="1" style="stop-color:#9571F6"/>
				</linearGradient>
				<path style="fill:url(#SVGID_00000174563321604391429210000000383526251507885979_);" d="M652.289,3169.416l128.687,65.152
					l77.971-239.268l-128.475-320.774l-36.43,8.932l-55.276,460.689C637.516,3154.575,642.919,3164.672,652.289,3169.416z"/>
				
					<linearGradient id="SVGID_00000021077540149400285130000012424753361349931418_" gradientUnits="userSpaceOnUse" x1="609.15" y1="2730.6838" x2="771.8217" y2="3003.4719">
					<stop  offset="0.0036" style="stop-color:#E38DDD"/>
					<stop  offset="1" style="stop-color:#9571F6"/>
				</linearGradient>
				<path style="opacity:0.3;fill:url(#SVGID_00000021077540149400285130000012424753361349931418_);" d="M858.948,2995.299
					l-128.475-320.774l-21.488,5.269c-2.979,42.828-1.67,78.077,0.354,103.741c8.613,109.214,37.215,139.605,23.359,215.794
					c-11.521,63.35-36.682,71.949-34.483,114.571c2.396,46.42,34.772,85.292,73.266,115.861l9.495,4.807L858.948,2995.299z"/>
				
					<linearGradient id="SVGID_00000000184378588384017240000000881819232903308681_" gradientUnits="userSpaceOnUse" x1="867.1813" y1="2855.5735" x2="1325.1643" y2="3208.446">
					<stop  offset="0.0036" style="stop-color:#E38DDD"/>
					<stop  offset="1" style="stop-color:#9571F6"/>
				</linearGradient>
				<polygon style="fill:url(#SVGID_00000000184378588384017240000000881819232903308681_);" points="730.473,2674.526 
					1210.296,2674.526 1369.095,3187.179 780.976,3234.568 				"/>
				
					<linearGradient id="SVGID_00000018238839200569973570000003434273961084478397_" gradientUnits="userSpaceOnUse" x1="860.5093" y1="2592.4695" x2="1125.9492" y2="2592.4695">
					<stop  offset="0" style="stop-color:#311944"/>
					<stop  offset="1" style="stop-color:#A03976"/>
				</linearGradient>
				<path style="fill:url(#SVGID_00000018238839200569973570000003434273961084478397_);" d="M879.115,2718.465
					c-3.029,0-5.771-2.076-6.492-5.152c-1.364-5.813-32.889-143.18,11.562-210.595c12.74-19.321,30.54-31.118,52.904-35.063
					c114.908-20.247,185.655,226.552,188.611,237.069c0.996,3.549-1.071,7.233-4.619,8.23c-3.552,1-7.234-1.072-8.231-4.619
					c-0.692-2.457-70.333-245.739-173.442-227.533c-18.87,3.327-33.288,12.9-44.078,29.264
					c-41.319,62.667-10.031,198.833-9.71,200.202c0.842,3.588-1.386,7.179-4.974,8.021
					C880.132,2718.408,879.619,2718.465,879.115,2718.465z"/>
				<g style="opacity:0.3;">
					
						<linearGradient id="SVGID_00000047738618901906958930000009666866232538238863_" gradientUnits="userSpaceOnUse" x1="873.1013" y1="2847.8889" x2="1331.0845" y2="3200.7617">
						<stop  offset="0.0036" style="stop-color:#E38DDD"/>
						<stop  offset="1" style="stop-color:#9571F6"/>
					</linearGradient>
					<path style="fill:url(#SVGID_00000047738618901906958930000009666866232538238863_);" d="M1210.296,2674.526H972.259
						c-11.74,11.941-20.071,25.704-20.867,41.142c-3.741,72.533,163.005,96.361,179.087,195.772
						c11.601,71.712-59.78,154.457-123.47,191.322c-67.102,38.84-112.569,19.171-157.952,62.291
						c-19.941,18.946-32.083,42.637-39.304,67.196l559.342-45.069L1210.296,2674.526z"/>
				</g>
				
					<linearGradient id="SVGID_00000103260473382977920690000013801645443794088578_" gradientUnits="userSpaceOnUse" x1="860.5095" y1="2719.4717" x2="897.8138" y2="2719.4717">
					<stop  offset="0" style="stop-color:#311944"/>
					<stop  offset="1" style="stop-color:#A03976"/>
				</linearGradient>
				
					<circle style="fill:url(#SVGID_00000103260473382977920690000013801645443794088578_);" cx="879.162" cy="2719.472" r="18.652"/>
				
					<linearGradient id="SVGID_00000049911989742887662030000012604108569415244716_" gradientUnits="userSpaceOnUse" x1="1103.7543" y1="2717.7417" x2="1141.0586" y2="2717.7417">
					<stop  offset="0" style="stop-color:#311944"/>
					<stop  offset="1" style="stop-color:#A03976"/>
				</linearGradient>
				
					<circle style="fill:url(#SVGID_00000049911989742887662030000012604108569415244716_);" cx="1122.406" cy="2717.742" r="18.652"/>
			</g>
		</g>
		<g>
			<g>
				
					<linearGradient id="SVGID_00000062190585707625136990000010048818697685206954_" gradientUnits="userSpaceOnUse" x1="720.6648" y1="1074.4783" x2="1419.4585" y2="1074.4783" gradientTransform="matrix(1 0 0 1 -66.2199 0)">
					<stop  offset="0" style="stop-color:#444B8C"/>
					<stop  offset="0.9964" style="stop-color:#26264F"/>
				</linearGradient>
				<path style="fill:url(#SVGID_00000062190585707625136990000010048818697685206954_);" d="M1353.239,1098.049
					c0,189.058-147.832,337.781-336.779,331.979c-196.637-6.038-362.015-175.864-362.015-379.09
					c0-203.226,165.378-350.752,362.015-330.277C1205.406,740.336,1353.239,908.991,1353.239,1098.049z"/>
				
					<linearGradient id="SVGID_00000153704105190240847670000000150602721227003311_" gradientUnits="userSpaceOnUse" x1="1279.9728" y1="707.1809" x2="916.1546" y2="1509.8319" gradientTransform="matrix(1 0 0 1 -66.2199 0)">
					<stop  offset="0" style="stop-color:#AA80F9"/>
					<stop  offset="0.9964" style="stop-color:#6165D7"/>
				</linearGradient>
				<path style="fill:url(#SVGID_00000153704105190240847670000000150602721227003311_);" d="M1404.296,1081.748
					c0,189.058-147.833,337.781-336.779,331.979c-196.637-6.038-362.016-175.864-362.016-379.089
					c0-203.226,165.378-350.753,362.016-330.277C1256.463,724.034,1404.296,892.69,1404.296,1081.748z"/>
				<path style="fill:#FFFFFF;" d="M1389.465,1080.748c0,180.734-141.448,322.667-321.948,316.822
					c-187.505-6.072-344.936-168.143-344.936-361.781c0-193.638,157.43-334.482,344.936-315.271
					C1248.017,739.01,1389.465,900.015,1389.465,1080.748z"/>
				
					<linearGradient id="SVGID_00000093879526669017492440000010436193384189874051_" gradientUnits="userSpaceOnUse" x1="739.7719" y1="1058.3181" x2="1373.8396" y2="1058.3181">
					<stop  offset="0" style="stop-color:#AA80F9"/>
					<stop  offset="0.9964" style="stop-color:#6165D7"/>
				</linearGradient>
				<path style="fill:url(#SVGID_00000093879526669017492440000010436193384189874051_);" d="M1373.84,1079.695
					c0,158.707-114.675,285.842-267.22,300.087c-12.817,1.206-25.945,1.608-39.252,1.161
					c-178.176-5.984-327.595-160.091-327.595-343.984c0-159.913,112.979-282.047,259.628-299.328
					c21.972-2.59,44.745-2.858,67.967-0.491C1239.07,754.511,1373.84,907.636,1373.84,1079.695z"/>
				
					<linearGradient id="SVGID_00000060717859029213494580000010451003150579107514_" gradientUnits="userSpaceOnUse" x1="979.2239" y1="974.7614" x2="1261.8715" y2="1574.7683" gradientTransform="matrix(1 0 0 1 -66.2199 0)">
					<stop  offset="0" style="stop-color:#AA80F9"/>
					<stop  offset="0.9964" style="stop-color:#6165D7"/>
				</linearGradient>
				<path style="opacity:0.6;fill:url(#SVGID_00000060717859029213494580000010451003150579107514_);" d="M1106.619,1379.782
					c-12.817,1.206-25.945,1.608-39.252,1.161c-178.176-5.984-327.595-160.091-327.595-343.984
					c0-159.913,112.979-282.047,259.628-299.328c49.525,38.672,93.867,88.151,101.503,146.784
					c12.459,95.563-83.015,139.55-93.553,243.419C998.687,1213.528,1039.725,1309.003,1106.619,1379.782z"/>
			</g>
			<path style="fill:#FFFFFF;" d="M901.89,984.155c0,54.78,63.779,185.066,108.825,270.279
				c18.763,35.492,68.201,37.881,87.043,4.115c45.415-81.393,110.15-207.139,110.15-262.438c0-85.334-69.007-156.88-153.729-159.789
				C969.895,833.428,901.89,899.621,901.89,984.155z M972.235,986.903c0-45.486,36.637-81.021,81.944-79.367
				c45.433,1.66,82.358,40.069,82.358,85.786c0,45.716-36.925,81.24-82.358,79.35
				C1008.871,1070.787,972.235,1032.389,972.235,986.903z"/>
		</g>
		<g>
			
				<linearGradient id="SVGID_00000029759684800387482640000009392437234883229109_" gradientUnits="userSpaceOnUse" x1="1153.8701" y1="2493.8003" x2="1527.0817" y2="2493.8003" gradientTransform="matrix(-1 0 0 1 4027.9646 0)">
				<stop  offset="0" style="stop-color:#444B8C"/>
				<stop  offset="0.9964" style="stop-color:#3E4177"/>
			</linearGradient>
			<path style="fill:url(#SVGID_00000029759684800387482640000009392437234883229109_);" d="M2555.443,2186.553
				c68.825-33.612,203.069,88.134,268.398,204.749c26.035,46.47,56.6,101.029,49.1,165.89
				c-13.295,114.991-140.855,215.858-316.431,249.532c-4.942-17.654-9.885-35.306-14.828-52.959
				c19.198-19.993,47.906-48.859,84.597-81.932c56.359-50.802,67.94-54.19,70.643-70.229
				c8.854-52.537-126.249-96.517-174.304-188.89C2481.302,2333.295,2502.571,2212.375,2555.443,2186.553z"/>
			
				<linearGradient id="SVGID_00000145756393459728517270000011510038174656957610_" gradientUnits="userSpaceOnUse" x1="2653.1157" y1="2837.5869" x2="2709.6899" y2="3171.8889">
				<stop  offset="0" style="stop-color:#444B8C"/>
				<stop  offset="0.9964" style="stop-color:#26264F"/>
			</linearGradient>
			<path style="fill:url(#SVGID_00000145756393459728517270000011510038174656957610_);" d="M2645.865,3110.777
				c0,0-11.3,27.876-5.681,38.792c5.899,11.461,22.953,8.053,70.964,9.857c49.172,1.847,60.294,5.794,62.258,0.854
				c3.927-9.871-34.277-41.217-78.968-49.503C2674.751,3107.127,2657.696,3108.673,2645.865,3110.777z"/>
			
				<linearGradient id="SVGID_00000158000042673622927470000004697506314170627243_" gradientUnits="userSpaceOnUse" x1="1408.5402" y1="2894.7063" x2="1359.8182" y2="3199.7463" gradientTransform="matrix(-1 0 0 1 4027.9646 0)">
				<stop  offset="0" style="stop-color:#311944"/>
				<stop  offset="1" style="stop-color:#A03976"/>
			</linearGradient>
			<path style="fill:url(#SVGID_00000158000042673622927470000004697506314170627243_);" d="M2655.99,3069.104l26.734,41.672
				c0,0-12.321,12.158-33.255,7.632l-29.408-39.479L2655.99,3069.104z"/>
			
				<linearGradient id="SVGID_00000159427520731627347870000000462321679938543268_" gradientUnits="userSpaceOnUse" x1="1153.8706" y1="2493.8276" x2="1527.08" y2="2493.8276" gradientTransform="matrix(-1 0 0 1 4027.9646 0)">
				<stop  offset="0" style="stop-color:#444B8C"/>
				<stop  offset="0.9964" style="stop-color:#3E4177"/>
			</linearGradient>
			<path style="opacity:0.3;fill:url(#SVGID_00000159427520731627347870000000462321679938543268_);" d="M2522.617,2412.715
				c-41.315-79.42-20.046-200.34,32.826-226.162c13.865-6.77,30.411-7.148,48.487-2.621c-9.518,27.486-7.631,47.36-2.935,61.435
				c20.948,62.783,111.515,55.64,139.81,127.1c17.887,45.173-10.557,67.59,14.828,103.798
				c26.308,37.525,69.327,31.233,82.615,67.787c9.901,27.236-9.623,42.723-2.118,65.668c2.091,6.394,6.213,12.813,13.143,18.911
				c-46.53,83.683-154.806,151.635-292.762,178.094c-4.942-17.654-9.885-35.306-14.828-52.959
				c19.198-19.993,47.906-48.859,84.597-81.932c56.359-50.802,67.94-54.19,70.643-70.229
				C2705.774,2549.068,2570.672,2505.088,2522.617,2412.715z"/>
			
				<linearGradient id="SVGID_00000053538599176644327620000016450589732796202430_" gradientUnits="userSpaceOnUse" x1="1360.6796" y1="2654.1011" x2="1679.7938" y2="2654.1011" gradientTransform="matrix(-1 0 0 1 4027.9646 0)">
				<stop  offset="0" style="stop-color:#444B8C"/>
				<stop  offset="0.9964" style="stop-color:#3E4177"/>
			</linearGradient>
			<path style="fill:url(#SVGID_00000053538599176644327620000016450589732796202430_);" d="M2602.408,2211.474
				c-2.978,120.362-1.308,250.503,7.409,389.046c11.13,176.904,31.981,339.39,57.468,485.402
				c-11.322,3.602-22.644,7.204-33.965,10.807c-116.45-113.46-151.296-213.269-160.836-285.061
				c-6.743-50.75,3.462-55.112-5.639-118.629c-17.332-120.959-62.547-162.384-94.298-275.622
				c-11.917-42.502-25.184-106.709-24.337-190.407C2432.942,2221.831,2517.675,2216.652,2602.408,2211.474z"/>
			
				<linearGradient id="SVGID_00000142861153145340371560000014900692900915987118_" gradientUnits="userSpaceOnUse" x1="2216.8601" y1="2002.1628" x2="2935.8047" y2="2002.1628">
				<stop  offset="0" style="stop-color:#FF9085"/>
				<stop  offset="1" style="stop-color:#FB6FBB"/>
			</linearGradient>
			<path style="fill:url(#SVGID_00000142861153145340371560000014900692900915987118_);" d="M2685.824,1995.882
				c-2.114,0.485-11.294,3.538-14.924,41.889c-8.753,92.472,39.393,129.91,27.538,180.058
				c-11.379,48.135-69.415,71.488-129.15,95.526c-39.919,16.065-163.388,65.747-235.193,9.88
				c-30.219-23.513-33.527-51.901-55.085-156.246c-54.776-265.118-75.996-287.896-52.958-345.287
				c39.562-98.559,145.488-139.374,163.111-146.165c187.92-72.41,409.836,60.673,497.527,213.564
				c11.547,20.131,80.505,140.363,32.055,197.391c-29.312,34.5-96.67,40.07-141.122,16.544
				C2718.232,2071.603,2705.613,1991.346,2685.824,1995.882z"/>
			
				<linearGradient id="SVGID_00000157293095267369195560000005962191127392215962_" gradientUnits="userSpaceOnUse" x1="2759.3284" y1="2003.0691" x2="2895.4436" y2="2003.0691">
				<stop  offset="0" style="stop-color:#FF9085"/>
				<stop  offset="1" style="stop-color:#FB6FBB"/>
			</linearGradient>
			<path style="fill:url(#SVGID_00000157293095267369195560000005962191127392215962_);" d="M2891.211,2066.013
				c0.587,0,1.183-0.125,1.754-0.385c2.126-0.969,3.065-3.48,2.098-5.611c-1.611-3.526-40.402-86.777-130.042-119.628
				c-2.201-0.815-4.629,0.318-5.432,2.52c-0.806,2.196,0.323,4.629,2.521,5.432c86.222,31.602,124.861,114.361,125.241,115.192
				C2888.062,2065.094,2889.6,2066.013,2891.211,2066.013z"/>
			
				<linearGradient id="SVGID_00000108997312123938262500000007664892074881965233_" gradientUnits="userSpaceOnUse" x1="2526.938" y1="1889.1158" x2="2583.5745" y2="1984.7687">
				<stop  offset="0" style="stop-color:#311944"/>
				<stop  offset="1" style="stop-color:#A03976"/>
			</linearGradient>
			<path style="fill:url(#SVGID_00000108997312123938262500000007664892074881965233_);" d="M2539.286,1970.925
				c0.495-3.823,4.375-30.239,26.431-38.702c10.971-4.209,30.25-5.44,37.758,6.608c4.714,7.564,4.302,19.588-1.888,25.486
				c-7.826,7.458-18.03-1.407-32.094,4.72c-16.904,7.364-19.649,27.789-25.487,26.43
				C2539.415,1994.398,2537.976,1981.03,2539.286,1970.925z"/>
			
				<linearGradient id="SVGID_00000077301791364972168260000002566430551041524365_" gradientUnits="userSpaceOnUse" x1="2216.8601" y1="2046.8145" x2="2700.321" y2="2046.8145">
				<stop  offset="0" style="stop-color:#FF9085"/>
				<stop  offset="1" style="stop-color:#FB6FBB"/>
			</linearGradient>
			<path style="opacity:0.3;fill:url(#SVGID_00000077301791364972168260000002566430551041524365_);" d="M2348.915,1787.809
				c11.86,32.288-23.728,60.267-8.473,95.324c21.862,50.243,108.746,24.456,139.809,74.142
				c36.815,58.887-47.49,155.473-12.71,188.531c15.849,15.064,34.161-4.229,80.496,6.355c65.99,15.073,85.817,67.219,116.508,59.313
				c9.653-2.487,21.354-11.249,31.199-38.226c4.292,14.968,6.335,29.177,2.694,44.582c-11.379,48.135-69.415,71.488-129.151,95.526
				c-39.92,16.065-163.387,65.747-235.192,9.88c-30.219-23.513-33.527-51.901-55.085-156.246
				c-54.776-265.118-75.996-287.896-52.958-345.287c12.562-31.295,31.819-56.748,52.811-77.159
				C2324.122,1754.54,2342.707,1770.906,2348.915,1787.809z"/>
			
				<linearGradient id="SVGID_00000165220079075889310980000010384847090686121859_" gradientUnits="userSpaceOnUse" x1="2173.8525" y1="1893.1595" x2="2556.0613" y2="1893.1595">
				<stop  offset="0" style="stop-color:#FF9085"/>
				<stop  offset="1" style="stop-color:#FB6FBB"/>
			</linearGradient>
			<path style="fill:url(#SVGID_00000165220079075889310980000010384847090686121859_);" d="M2537.91,1946.039
				c-5.07,4.611-61.924,65.669-123.766,50.207c-53.858-13.468-86.924-65.831-92.718-109.891
				c-13.776-104.788,122.745-192.745,105.916-213.951c-9.898-12.472-62.61,10.673-99.562,33.893
				c-30.3,19.041-157.264,98.824-153.861,232.593c0.345,13.576,2.534,99.601,59.468,142.535
				c76.892,57.984,195.724,56.436,322.674-83.728C2549.03,1977.683,2544.943,1966.053,2537.91,1946.039z"/>
			<g>
				
					<linearGradient id="SVGID_00000099654481642983577510000008727673215236699571_" gradientUnits="userSpaceOnUse" x1="2853.6436" y1="2009.8646" x2="2650.6958" y2="1856.9459">
					<stop  offset="0" style="stop-color:#444B8C"/>
					<stop  offset="0.9964" style="stop-color:#26264F"/>
				</linearGradient>
				<path style="fill:url(#SVGID_00000099654481642983577510000008727673215236699571_);" d="M2815.473,1817.65l-61.211,195.531
					c-2.008,6.411-7.841,10.859-14.554,11.096l-80.039,11.635c-10.323,0.365-18.227-9.09-16.036-19.184l53.972-200.141
					c1.54-7.104,7.719-12.246,14.984-12.472l87.278-7.027C2810.756,1796.751,2818.728,1807.252,2815.473,1817.65z"/>
				
					<linearGradient id="SVGID_00000139981483422572497140000005519500095671427492_" gradientUnits="userSpaceOnUse" x1="1266.0826" y1="1859.614" x2="1362.5867" y2="2033.6139" gradientTransform="matrix(-1 0 0 1 4027.9646 0)">
					<stop  offset="0" style="stop-color:#444B8C"/>
					<stop  offset="0.9964" style="stop-color:#26264F"/>
				</linearGradient>
				<path style="fill:url(#SVGID_00000139981483422572497140000005519500095671427492_);" d="M2812.537,1824.079l-59.409,189.772
					c-1.947,6.223-7.609,10.539-14.125,10.769l-70.337,11.294c-10.018,0.354-17.689-8.823-15.563-18.619l52.717-194.358
					c1.496-6.894,7.492-11.885,14.542-12.104l77.026-6.708C2807.959,1803.796,2815.697,1813.988,2812.537,1824.079z"/>
				
					<linearGradient id="SVGID_00000109732347188593060010000016883038484209290636_" gradientUnits="userSpaceOnUse" x1="2638.1912" y1="1807.8802" x2="2788.4209" y2="2171.6438">
					<stop  offset="0" style="stop-color:#444B8C"/>
					<stop  offset="0.9964" style="stop-color:#26264F"/>
				</linearGradient>
				<path style="opacity:0.3;fill:url(#SVGID_00000109732347188593060010000016883038484209290636_);" d="M2653.104,2017.294
					l50.367-185.69c3.739,1.845,9.139,4.698,14.207,9.046c19.838,17.015,31.199,47.812,24.651,72.445
					c-8.352,31.414-40.405,32.386-44.838,58.524c-3.47,20.461,13.125,42.119,26.833,55.356l-55.656,8.936
					C2658.65,2036.267,2650.979,2027.09,2653.104,2017.294z"/>
			</g>
			
				<linearGradient id="SVGID_00000010290140596249386990000001867286177991885212_" gradientUnits="userSpaceOnUse" x1="1495.5103" y1="1505.7141" x2="1468.6781" y2="1734.4943" gradientTransform="matrix(-1 0 0 1 4027.9646 0)">
				<stop  offset="0" style="stop-color:#311944"/>
				<stop  offset="1" style="stop-color:#A03976"/>
			</linearGradient>
			<path style="fill:url(#SVGID_00000010290140596249386990000001867286177991885212_);" d="M2582.874,1656.697
				c-3.502,12.29,3.891,25.062,16.314,28.06c15.048,3.631,33.379,8.652,41.294,13.181c14.53,8.315-44.259-1.29-98.333-2.559
				c-33.759-0.792-58.985-4.581-73.176-7.317c-3.81-0.735-4.104-6.052-0.417-7.252c13.513-4.396,35.482-10.869,54.048-13.202
				c22.986-2.89,47.635-53.613,47.635-53.613l19.699,17.894L2582.874,1656.697z"/>
			
				<linearGradient id="SVGID_00000096040951442564035050000004651594944685613501_" gradientUnits="userSpaceOnUse" x1="1246.03" y1="1962.3944" x2="1310.5969" y2="1962.3944" gradientTransform="matrix(-1 0 0 1 4027.9646 0)">
				<stop  offset="0" style="stop-color:#311944"/>
				<stop  offset="1" style="stop-color:#A03976"/>
			</linearGradient>
			<path style="fill:url(#SVGID_00000096040951442564035050000004651594944685613501_);" d="M2778.538,1956.97l-3.738-6.113
				c-3.306-12.695-15.502-20.981-28.523-19.375l-19.641,2.422c-6.146,0.758-10.305,6.605-9.041,12.667
				c1.827,8.767,6.531,19.255,18.598,18.441c20.5-1.383,33.604,28.492,33.604,28.492l7.868-11.082
				C2783.023,1974.878,2783.365,1964.864,2778.538,1956.97z"/>
			
				<linearGradient id="SVGID_00000042721384501586414440000000379713331486823096_" gradientUnits="userSpaceOnUse" x1="2646.7085" y1="1497.6295" x2="2610.8389" y2="1604.2953">
				<stop  offset="0" style="stop-color:#444B8C"/>
				<stop  offset="0.9964" style="stop-color:#26264F"/>
			</linearGradient>
			<path style="fill:url(#SVGID_00000042721384501586414440000000379713331486823096_);" d="M2626.777,1630.702
				c16.989-2.517,36.02-16.799,35.649-28.6c-0.508-16.219-37.584-25.101-56.305-29.586c-18.778-4.498-26.742-2.87-32.117,1.221
				c-5.491,4.181-9.099,11.665-10.28,18.119c-0.644,3.517-0.677,8.357-0.075,18c0.536,8.558,0.378,8.182,0.6,10.711
				c0.534,6.073,2.191,16.753,8.11,31.558c2.466-2.703,5.73-5.932,9.853-9.115c1.586-1.224,7.861-5.967,14.996-8.839
				C2609.454,1629.239,2616.464,1632.229,2626.777,1630.702z"/>
			
				<linearGradient id="SVGID_00000054223881696936830740000014007309064610125740_" gradientUnits="userSpaceOnUse" x1="1471.2538" y1="1536.6362" x2="1445.8337" y2="1600.1864" gradientTransform="matrix(-1 0 0 1 4027.9646 0)">
				<stop  offset="0" style="stop-color:#311944"/>
				<stop  offset="1" style="stop-color:#A03976"/>
			</linearGradient>
			<path style="fill:url(#SVGID_00000054223881696936830740000014007309064610125740_);" d="M2563.32,1635.625
				c0,0,1.101,23.666,23.401,34.057c19.969,9.303,46.468-32.387,39.178-48.307c-2.432-5.31-9.964-11.086-17.681-12.876
				c-4.558-1.057-6.794-0.147-14.209-2.018c-6.838-1.726-8.167-3.317-10.807-2.785c-3.303,0.664-7.514,4.423-10.661,19.13
				c-1.638-5.739-5.271-9.586-9.207-9.822c-0.629-0.037-2.446,0.138-3.938,1.095
				C2553.996,1617.562,2555.051,1626.338,2563.32,1635.625z"/>
		</g>
		<g>
			
				<ellipse transform="matrix(0.5257 -0.8507 0.8507 0.5257 -193.8526 3173.1455)" style="fill:#FFFFFF;" cx="2748.753" cy="1760.42" rx="16.562" ry="16.562"/>
			<path style="fill:#FFFFFF;" d="M2748.753,1621.604c-34.603,0-66.243,12.666-90.55,33.609c-4.988,4.298-5.346,11.896-0.69,16.551
				l0.468,0.467c4.142,4.142,10.797,4.445,15.229,0.615c20.267-17.506,46.661-28.107,75.544-28.107
				c28.883,0,55.277,10.601,75.544,28.107c4.433,3.829,11.088,3.526,15.229-0.615l0.467-0.468c4.656-4.656,4.298-12.254-0.69-16.551
				C2814.996,1634.271,2783.355,1621.604,2748.753,1621.604z"/>
			<path style="fill:#FFFFFF;" d="M2748.753,1660.164c-23.905,0-45.842,8.38-63.065,22.348c-5.155,4.18-5.482,11.945-0.789,16.638
				l0.08,0.08c4.113,4.113,10.622,4.338,15.151,0.69c13.305-10.714,30.21-17.135,48.623-17.135c18.413,0,35.318,6.421,48.623,17.135
				c4.53,3.648,11.039,3.422,15.151-0.69l0.08-0.081c4.693-4.693,4.365-12.458-0.789-16.638
				C2794.594,1668.544,2772.657,1660.164,2748.753,1660.164z"/>
			<path style="fill:#FFFFFF;" d="M2712.483,1726.735c4.071,4.071,10.387,4.53,15.207,1.381c6.055-3.956,13.29-6.256,21.063-6.256
				c7.773,0,15.008,2.3,21.063,6.256c4.82,3.149,11.136,2.69,15.207-1.381l0.053-0.053c4.991-4.99,4.205-13.29-1.625-17.267
				c-9.885-6.744-21.828-10.691-34.698-10.691c-12.87,0-24.813,3.947-34.698,10.691c-5.83,3.978-6.615,12.277-1.625,17.267
				L2712.483,1726.735z"/>
		</g>
		<g>
			
				<linearGradient id="SVGID_00000005266636177846787610000014170947586753367993_" gradientUnits="userSpaceOnUse" x1="1952.967" y1="2664.8057" x2="1761.9889" y2="3177.4319" gradientTransform="matrix(0.9982 0.0606 -0.0606 0.9982 -85.0607 -57.703)">
				<stop  offset="0" style="stop-color:#FFC444"/>
				<stop  offset="0.9964" style="stop-color:#F36F56"/>
			</linearGradient>
			<path style="fill:url(#SVGID_00000005266636177846787610000014170947586753367993_);" d="M1309.671,2961.224
				c-65.229-26.415-89.208-45.948-97.953-72.144c-25.123-75.259,82.023-185.579,185.476-235.349
				c95.106-45.754,182.136-37.95,304.091-27.014c117.995,10.581,202.463,18.155,274.27,83.042
				c53.892,48.699,111.402,139.39,83.053,201.624c-16.07,35.278-55.234,51.579-145.407,70.832
				C1559.545,3057.722,1354.746,2979.477,1309.671,2961.224z"/>
			
				<linearGradient id="SVGID_00000177461238740308113560000001404891391740477345_" gradientUnits="userSpaceOnUse" x1="1915.5272" y1="3071.0649" x2="1888.3981" y2="2789.6021" gradientTransform="matrix(0.9982 0.0606 -0.0606 0.9982 -85.0607 -57.703)">
				<stop  offset="0" style="stop-color:#FFC444"/>
				<stop  offset="0.9964" style="stop-color:#F36F56"/>
			</linearGradient>
			<path style="fill:url(#SVGID_00000177461238740308113560000001404891391740477345_);" d="M1462.065,2826.283
				c-174.584,3.925-216.789,54.603-216.218,103.273c14.905,9.998,35.463,20.183,63.823,31.667
				c45.075,18.253,249.874,96.498,603.53,20.991c42.878-9.154,74.198-17.644,97.007-27.818
				C2086.052,2772.726,1759.716,2819.593,1462.065,2826.283z"/>
			
				<linearGradient id="SVGID_00000114760356323858784730000009685480250317059241_" gradientUnits="userSpaceOnUse" x1="1682.188" y1="3032.7188" x2="1688.913" y2="2572.0742" gradientTransform="matrix(0.9982 0.0606 -0.0606 0.9982 -85.0607 -57.703)">
				<stop  offset="0" style="stop-color:#FFC444"/>
				<stop  offset="0.9964" style="stop-color:#F36F56"/>
			</linearGradient>
			<path style="fill:url(#SVGID_00000114760356323858784730000009685480250317059241_);" d="M1448.603,2656.642
				c-17.76,3.528-42.76,14.385-41.346,23.598c1.301,8.481,25.143,16.612,43.167,9.214c15.945-6.544,26.802-25.023,22.503-31.679
				C1469.511,2652.488,1456.771,2655.02,1448.603,2656.642z"/>
			
				<linearGradient id="SVGID_00000009576676097118789600000007907827467932671883_" gradientUnits="userSpaceOnUse" x1="1764.6871" y1="3036.9287" x2="1771.4434" y2="2574.1355" gradientTransform="matrix(0.9982 0.0606 -0.0606 0.9982 -85.0607 -57.703)">
				<stop  offset="0" style="stop-color:#FFC444"/>
				<stop  offset="0.9964" style="stop-color:#F36F56"/>
			</linearGradient>
			<path style="fill:url(#SVGID_00000009576676097118789600000007907827467932671883_);" d="M1530.413,2639.467
				c-13.477,0.864-31.666,8.06-31.516,17.291c0.125,7.643,12.812,15.885,24.194,15.553c17.239-0.504,30.581-20.654,26.844-28.283
				C1547.174,2638.393,1534.902,2639.18,1530.413,2639.467z"/>
			
				<linearGradient id="SVGID_00000115481563029976662360000017516042944274428857_" gradientUnits="userSpaceOnUse" x1="1863.8865" y1="3038.4097" x2="1870.6202" y2="2577.1631" gradientTransform="matrix(0.9982 0.0606 -0.0606 0.9982 -85.0607 -57.703)">
				<stop  offset="0" style="stop-color:#FFC444"/>
				<stop  offset="0.9964" style="stop-color:#F36F56"/>
			</linearGradient>
			<path style="fill:url(#SVGID_00000115481563029976662360000017516042944274428857_);" d="M1620.757,2630.576
				c-7.893,0.062-35.111,0.273-36.183,7.043c-0.985,6.219,20.045,18.297,41.335,18.509c20.345,0.202,40.841-10.432,39.932-16.719
				C1664.777,2632.042,1634.319,2630.47,1620.757,2630.576z"/>
			
				<linearGradient id="SVGID_00000133523764703559691450000004501305337223356852_" gradientUnits="userSpaceOnUse" x1="1932.2684" y1="3043.1899" x2="1939.0433" y2="2579.1287" gradientTransform="matrix(0.9982 0.0606 -0.0606 0.9982 -85.0607 -57.703)">
				<stop  offset="0" style="stop-color:#FFC444"/>
				<stop  offset="0.9964" style="stop-color:#F36F56"/>
			</linearGradient>
			<path style="fill:url(#SVGID_00000133523764703559691450000004501305337223356852_);" d="M1695.201,2643.975
				c-9.049-1.735-16.507,8.048-15.148,11.714c1.893,5.104,23.297,4.864,25.283-0.947
				C1706.494,2651.356,1701.373,2645.158,1695.201,2643.975z"/>
			
				<linearGradient id="SVGID_00000029745953097498083830000011325172871603659905_" gradientUnits="userSpaceOnUse" x1="2001.4293" y1="3051.5525" x2="2008.2954" y2="2581.2412" gradientTransform="matrix(0.9982 0.0606 -0.0606 0.9982 -85.0607 -57.703)">
				<stop  offset="0" style="stop-color:#FFC444"/>
				<stop  offset="0.9964" style="stop-color:#F36F56"/>
			</linearGradient>
			<path style="fill:url(#SVGID_00000029745953097498083830000011325172871603659905_);" d="M1777.097,2645.818
				c-16.576-13.336-41.963-4.086-43.524,4.185c-2.285,12.112,43.605,37.609,53.686,28.445
				C1793.023,2673.208,1788.715,2655.165,1777.097,2645.818z"/>
			
				<linearGradient id="SVGID_00000084499965201321572540000014207371463505017229_" gradientUnits="userSpaceOnUse" x1="2071.6099" y1="3051.7034" x2="2078.4463" y2="2583.4229" gradientTransform="matrix(0.9982 0.0606 -0.0606 0.9982 -85.0607 -57.703)">
				<stop  offset="0" style="stop-color:#FFC444"/>
				<stop  offset="0.9964" style="stop-color:#F36F56"/>
			</linearGradient>
			<path style="fill:url(#SVGID_00000084499965201321572540000014207371463505017229_);" d="M1829.447,2658.241
				c-5.109,0.166-10.366,6.268-9.79,11.362c0.978,8.646,18.649,13.409,22.184,9.306
				C1845.377,2674.805,1838.117,2657.959,1829.447,2658.241z"/>
			
				<linearGradient id="SVGID_00000061449726620742673660000008669476298243868316_" gradientUnits="userSpaceOnUse" x1="2115.0278" y1="3053.8386" x2="2121.875" y2="2584.8167" gradientTransform="matrix(0.9982 0.0606 -0.0606 0.9982 -85.0607 -57.703)">
				<stop  offset="0" style="stop-color:#FFC444"/>
				<stop  offset="0.9964" style="stop-color:#F36F56"/>
			</linearGradient>
			<path style="fill:url(#SVGID_00000061449726620742673660000008669476298243868316_);" d="M1879.997,2662.184
				c-8.325-4.296-18.029,1.093-18.515,5.374c-0.757,6.665,20.021,17.703,24.96,13.308
				C1889.65,2678.011,1888.499,2666.573,1879.997,2662.184z"/>
			
				<linearGradient id="SVGID_00000122721991037952378920000001577430788019092392_" gradientUnits="userSpaceOnUse" x1="1619.1709" y1="3034.6826" x2="1625.963" y2="2569.4434" gradientTransform="matrix(0.9982 0.0606 -0.0606 0.9982 -85.0607 -57.703)">
				<stop  offset="0" style="stop-color:#FFC444"/>
				<stop  offset="0.9964" style="stop-color:#F36F56"/>
			</linearGradient>
			<path style="fill:url(#SVGID_00000122721991037952378920000001577430788019092392_);" d="M1366.332,2679.889
				c-0.499-5.404,14.214-13.032,18.873-9.177c3.113,2.576,3.03,11.347-2.437,15.014
				C1376.224,2690.114,1366.713,2684.005,1366.332,2679.889z"/>
			
				<linearGradient id="SVGID_00000104668623913909785480000004121122596849097349_" gradientUnits="userSpaceOnUse" x1="1826.8423" y1="3043.325" x2="1833.6719" y2="2575.5129" gradientTransform="matrix(0.9982 0.0606 -0.0606 0.9982 -85.0607 -57.703)">
				<stop  offset="0" style="stop-color:#FFC444"/>
				<stop  offset="0.9964" style="stop-color:#F36F56"/>
			</linearGradient>
			<path style="fill:url(#SVGID_00000104668623913909785480000004121122596849097349_);" d="M1579.39,2672.892
				c-5.331,1.522-9.134,10.506-6.311,16.21c4.118,8.321,21.026,7.01,23.478,1.823
				C1599.185,2685.367,1587.465,2670.587,1579.39,2672.892z"/>
			
				<linearGradient id="SVGID_00000072278429864640822810000014479840270792003206_" gradientUnits="userSpaceOnUse" x1="1877.7689" y1="2723.9441" x2="1905.5333" y2="2946.0603" gradientTransform="matrix(0.9982 0.0606 -0.0606 0.9982 -85.0607 -57.703)">
				<stop  offset="0" style="stop-color:#AB316D"/>
				<stop  offset="1" style="stop-color:#792D3D"/>
			</linearGradient>
			<path style="fill:url(#SVGID_00000072278429864640822810000014479840270792003206_);" d="M1329.325,3013.078
				c-25.103-7.004-63.343-18.775-67.643-41.993c-6.481-34.99,66.782-81.42,130.132-103.08c63.57-21.735,85.21-7.598,243.721-15.029
				c47.959-2.248,76.95-4.996,153.82-7.713c74.578-2.636,124.81-2.789,174.114,26.31c15.637,9.229,43.631,26.233,45.443,50.987
				c2.15,29.38-33.783,53.291-50.93,64.402C1818.919,3077.07,1533.151,3069.946,1329.325,3013.078z"/>
			
				<linearGradient id="SVGID_00000074440433426844897630000004922807098750594215_" gradientUnits="userSpaceOnUse" x1="1892.0175" y1="2788.6873" x2="1913.1442" y2="2957.7014" gradientTransform="matrix(0.9982 0.0606 -0.0606 0.9982 -85.0607 -57.703)">
				<stop  offset="0" style="stop-color:#AB316D"/>
				<stop  offset="1" style="stop-color:#792D3D"/>
			</linearGradient>
			<path style="opacity:0.3;fill:url(#SVGID_00000074440433426844897630000004922807098750594215_);" d="M1346.334,3014.136
				c-24.547-5.475-61.956-14.597-66.514-31.177c-6.869-24.986,63.698-56.516,125.013-70.645
				c61.53-14.179,82.821-3.706,237.003-5.838c46.651-0.645,74.829-2.021,149.619-2.426c72.562-0.392,121.463,0.497,169.931,22.151
				c15.372,6.868,42.899,19.506,45.06,37.129c2.564,20.917-32.036,37.192-48.552,44.746
				C1823.953,3069.333,1545.649,3058.589,1346.334,3014.136z"/>
			
				<linearGradient id="SVGID_00000183236598487596531370000016990736214849584542_" gradientUnits="userSpaceOnUse" x1="1239.3295" y1="2862.2971" x2="3267.3926" y2="2996.261" gradientTransform="matrix(0.9982 0.0606 -0.0606 0.9982 -85.0607 -57.703)">
				<stop  offset="0" style="stop-color:#6BFFD4"/>
				<stop  offset="1" style="stop-color:#25767A"/>
			</linearGradient>
			<path style="fill:url(#SVGID_00000183236598487596531370000016990736214849584542_);" d="M1615.99,2997.471
				c-0.721-15.973,35.12-30.432,48.504-34.74c40.11-12.914,52.779,9.221,102.626-2.355c18.892-4.387,31.935-11.02,56.741-10.091
				c16.377,0.613,21.875,3.923,33.771,5.594c42.264,5.938,59.057-23.742,97.134-28.201c46.831-5.483,100.47,30.16,99.548,54.48
				c-0.858,22.599-48.892,37.063-78.683,45.751C1810.594,3076.04,1617.64,3034.039,1615.99,2997.471z"/>
			
				<linearGradient id="SVGID_00000173861573787643598050000013510745568806314639_" gradientUnits="userSpaceOnUse" x1="1877.1691" y1="2886.6289" x2="1939.5316" y2="3316.2395" gradientTransform="matrix(0.9982 0.0606 -0.0606 0.9982 -85.0607 -57.703)">
				<stop  offset="0" style="stop-color:#FFC444"/>
				<stop  offset="0.9964" style="stop-color:#F36F56"/>
			</linearGradient>
			<path style="fill:url(#SVGID_00000173861573787643598050000013510745568806314639_);" d="M1246.69,3191.685
				c-20.016-14.197-29.488-33.997-29.488-33.997c-11.72-24.502-10.529-54.217,0.198-75.431
				c17.581-34.769,59.932-45.046,83.437-50.402c174.767-39.821,276.491-46.495,276.491-46.495
				c145.753-9.564,199.352-12.289,277.491-8.314c120.394,6.124,160.43,21.111,178.739,51.96c16.142,27.196,16.23,68.118-1.234,97.16
				c-43.725,72.715-164.004,15.17-389.515,43.234C1517.834,3184.952,1305.801,3233.608,1246.69,3191.685z"/>
			
				<linearGradient id="SVGID_00000010289682982657632370000000901567933928811397_" gradientUnits="userSpaceOnUse" x1="2528.8816" y1="2736.8738" x2="356.4685" y2="3304.2393" gradientTransform="matrix(0.9982 0.0606 -0.0606 0.9982 -85.0607 -57.703)">
				<stop  offset="0" style="stop-color:#6BFFD4"/>
				<stop  offset="1" style="stop-color:#25767A"/>
			</linearGradient>
			<path style="fill:url(#SVGID_00000010289682982657632370000000901567933928811397_);" d="M1303.166,2975.483
				c-21.261,9.438-25.494,15.46-42.552,24.866c-35.215,19.418-48.982,11.295-61.358,28.052
				c-8.135,11.014-12.606,28.633-5.435,39.159c9.892,14.521,38.464,10.448,59.361,7.23c56.591-8.714,65.066-28.873,120.795-43.828
				c46.594-12.504,91.116-11.946,96.082-11.853c31.017,0.579,40.183,2.188,51.989,1.985c0,0,8.942-0.427,17.273-1.326
				c41.768-4.508,112.975-36.916,109.68-46.886c-2.791-8.444-51.815,20.973-105.276-0.604c-13.537-5.464-36.9-17.073-67.309-20.281
				c-41.89-4.419-44.583,18.185-91.629,14.047c-16.424-1.445-31.312-5.537-53.601-0.485
				C1319.844,2968.13,1310.713,2972.133,1303.166,2975.483z"/>
			<g style="opacity:0.3;">
				
					<linearGradient id="SVGID_00000121241002962847727300000012803679841411207311_" gradientUnits="userSpaceOnUse" x1="1877.2013" y1="2887.7161" x2="1939.2988" y2="3315.501" gradientTransform="matrix(0.9982 0.0606 -0.0606 0.9982 -85.0607 -57.703)">
					<stop  offset="0" style="stop-color:#FFC444"/>
					<stop  offset="0.9964" style="stop-color:#F36F56"/>
				</linearGradient>
				<path style="fill:url(#SVGID_00000121241002962847727300000012803679841411207311_);" d="M1970.824,3087.073
					c-37.333-2.666-63.45-17.551-75.762-23.858c-109.169-55.932-296.078-33.324-417.114,14.203
					c-106.422,41.789-140.766,94.536-213.794,78.296c-20.84-4.635-38.967-13.613-54.536-24.363
					c1.127,9.022,3.589,17.984,7.584,26.337c0,0,9.471,19.8,29.488,33.997c59.11,41.924,271.144-6.732,396.12-22.285
					c225.51-28.064,345.79,29.481,389.515-43.234c8.971-14.917,13.276-32.965,13.188-50.679
					C2023.75,3083.694,1998.492,3089.049,1970.824,3087.073z"/>
			</g>
		</g>
	</g>
</g>
</svg>
