<svg xmlns:dc="http://purl.org/dc/elements/1.1/" xmlns:cc="http://creativecommons.org/ns#" xmlns:rdf="http://www.w3.org/1999/02/22-rdf-syntax-ns#" xmlns:svg="http://www.w3.org/2000/svg" xmlns="http://www.w3.org/2000/svg" xmlns:sodipodi="http://sodipodi.sourceforge.net/DTD/sodipodi-0.dtd" xmlns:inkscape="http://www.inkscape.org/namespaces/inkscape" version="1.1" x="0px" y="0px" viewBox="0 0 670.87 1037.02705" enable-background="new 0 0 2000 2000" xml:space="preserve"><path style="" d="m 209.361,0 c -34.447,0 -62.514,28.037 -62.514,62.5144 l 0,91.207 -84.333,0 C 28.069,153.7214 0,181.7584 0,216.2344 l 0,468.79295 c 0,34.476 28.069,62.514 62.514,62.514 l 255.31102,0 0,-0.851 c 35.118,50.108 93.283,82.9313 158.968,82.9313 107.025,0 194.077,-87.0193 194.077,-194.0123 0,-67.924 -35.072,-127.792 -88.052,-162.478 l 0,-256.89695 c 0,-34.476 -28.005,-62.513 -62.513,-62.513 l -84.33,0 0,-91.207 C 435.97502,28.037 407.96802,0 373.46102,0 L 209.361,0 Z m 0,62.5144 164.10002,0 0,91.207 -164.10002,0 0,-91.207 z m -146.847,153.72 84.333,0 0,41.635 c 0,17.285 13.972,31.257 31.257,31.257 17.285,0 31.257,-13.972 31.257,-31.257 l 0,-41.635 164.10002,0 0,41.635 c 0,17.285 13.969,31.257 31.254,31.257 17.254,0 31.26,-13.972 31.26,-31.257 l 0,-41.635 84.33,0 0,230.21895 c -13.992,-3.216 -28.557,-4.917 -43.512,-4.917 -106.96,0 -194.00802,87.049 -194.00802,194.073 0,17.073 2.22302,33.634 6.38402,49.418 l -226.65502,0 0,-468.79295 z m 414.27902,256.55895 c 89.803,0 162.821,73.046 162.821,162.816 0,89.739 -73.018,162.755 -162.821,162.755 -89.737,0 -162.75,-73.016 -162.75,-162.755 0,-89.77 73.013,-162.816 162.75,-162.816 z m 0,45.166 c -17.222,0 -31.256,13.971 -31.256,31.257 l 0,55.126 -55.104,0.01 c -17.285,0 -31.259,14.003 -31.259,31.257 0,17.285 13.974,31.257 31.259,31.257 l 55.104,-0.01 0,55.147 c 0,17.254 13.971,31.257 31.256,31.257 17.224,0 31.258,-14.003 31.258,-31.257 l 0,-55.157 55.139,-0.01 c 17.285,0 31.258,-14.003 31.258,-31.257 0,-17.285 -13.973,-31.257 -31.258,-31.257 l -55.139,0.01 0,-55.116 c 0,-17.254 -13.973,-31.257 -31.258,-31.257 z" fill="#000000"/><text x="0" y="844.62164" fill="#000000" font-size="5px" font-weight="bold" font-family="'Helvetica Neue', Helvetica, Arial-Unicode, Arial, Sans-serif">Created by logan</text><text x="0" y="849.62164" fill="#000000" font-size="5px" font-weight="bold" font-family="'Helvetica Neue', Helvetica, Arial-Unicode, Arial, Sans-serif">from the Noun Project</text></svg>